<?xml version="1.0" encoding="UTF-8" standalone="no"?>
<svg width="23px" height="25px" viewBox="0 0 23 25" version="1.1" xmlns="http://www.w3.org/2000/svg" xmlns:xlink="http://www.w3.org/1999/xlink">
    <!-- Generator: Sketch 47 (45396) - http://www.bohemiancoding.com/sketch -->
    <title>Page 1 Copy 8</title>
    <desc>Created with Sketch.</desc>
    <defs>
        <path d="M8.4531041,1.49960348 L0.366779627,18.3800527 C-0.557682484,20.3105471 0.651702857,23.2566619 2.4472487,22.722878 C4.54946981,22.0983652 8.36767006,18.9772323 10.5331439,18.9772323 C12.6991901,18.9772323 16.5162455,22.0983652 18.6193252,22.722878 C20.4144417,23.2566619 21.6238271,20.3105471 20.699365,18.3800527 L12.6131836,1.49960348 C12.1508094,0.534642484 11.3419766,0.0520904348 10.5331439,0.0520904348 C9.72416795,0.0520904348 8.91533516,0.534642484 8.4531041,1.49960348 Z" id="path-1"></path>
        <path d="M8.4531041,1.49960348 L0.366779627,18.3800527 C-0.557682484,20.3105471 0.651702857,23.2566619 2.4472487,22.722878 C4.54946981,22.0983652 8.36767006,18.9772323 10.5331439,18.9772323 C12.6991901,18.9772323 16.5162455,22.0983652 18.6193252,22.722878 C20.4144417,23.2566619 21.6238271,20.3105471 20.699365,18.3800527 L12.6131836,1.49960348 C12.1508094,0.534642484 11.3419766,0.0520904348 10.5331439,0.0520904348 C9.72416795,0.0520904348 8.91533516,0.534642484 8.4531041,1.49960348 Z" id="path-3"></path>
    </defs>
    <g id="Symbols" stroke="none" stroke-width="1" fill="none" fill-rule="evenodd">
        <g id="Home_normal" transform="translate(-34.000000, -5.000000)">
            <g id="Page-1-Copy-8" transform="translate(35.000000, 6.000000)">
                <g id="Group-3" transform="translate(0.000000, 0.127936)">
                    <mask id="mask-2" fill="white">
                        <use xlink:href="#path-1"></use>
                    </mask>
                    <g id="Clip-2"></g>
                    <polygon id="Stroke-1" stroke="#3498BD" mask="url(#mask-2)" points="-2.94897689 25.7839066 24.0152646 25.7839066 24.0152646 -2.94554236 -2.94897689 -2.94554236"></polygon>
                </g>
                <g id="Group-6" transform="translate(0.000000, 0.127936)">
                    <mask id="mask-4" fill="white">
                        <use xlink:href="#path-3"></use>
                    </mask>
                    <g id="Clip-5"></g>
                    <polygon id="Stroke-4" stroke="#3498BD" mask="url(#mask-4)" points="-31.1254658 48.0119255 106.759346 48.0119255 106.759346 -24.5274395 -31.1254658 -24.5274395"></polygon>
                </g>
                <path d="M0.366722385,18.5079318 C-0.557739727,20.4384262 0.651645615,23.384541 2.44719145,22.8507572 C4.54955568,22.2262444 8.36761282,19.1051115 10.5330866,19.1051115 C12.6991328,19.1051115 16.5163313,22.2262444 18.6194111,22.8507572 C20.4145276,23.384541 21.6239129,20.4384262 20.6994508,18.5079318 L12.6131264,1.62748263 C11.6886642,-0.302439354 9.37750897,-0.302439354 8.45304686,1.62748263 L0.366722385,18.5079318 Z" id="Stroke-7" stroke="#3498DB" fill="#FFFFFF"></path>
            </g>
        </g>
    </g>
</svg>