<?xml version="1.0" encoding="UTF-8" standalone="no"?>
<svg width="22px" height="24px" viewBox="0 0 22 24" version="1.1" xmlns="http://www.w3.org/2000/svg" xmlns:xlink="http://www.w3.org/1999/xlink">
    <!-- Generator: Sketch 47 (45396) - http://www.bohemiancoding.com/sketch -->
    <title>Page 1 Copy 10</title>
    <desc>Created with Sketch.</desc>
    <defs></defs>
    <g id="Symbols" stroke="none" stroke-width="1" fill="none" fill-rule="evenodd">
        <g id="Notificaciones_normal" transform="translate(-34.000000, -7.000000)" fill="#FFFFFF">
            <g id="Page-1-Copy-10" transform="translate(35.000000, 8.000000)">
                <g id="Group-5" transform="translate(0.000000, 0.060432)">
                    <path d="M17.1372531,16.0246914 L3.21152469,16.0246914 C0.900438272,16.0246914 -0.618512346,13.6124321 0.379907407,11.5282716 L3.7617963,4.46993827 C6.61283333,-1.47997531 13.7359444,-1.47997531 16.5869815,4.46993827 L19.9688704,11.5282716 C20.9674259,13.6124321 19.4483395,16.0246914 17.1372531,16.0246914" id="Fill-1"></path>
                    <path d="M17.1372531,16.0246914 L3.21152469,16.0246914 C0.900438272,16.0246914 -0.618512346,13.6124321 0.379907407,11.5282716 L3.7617963,4.46993827 C6.61283333,-1.47997531 13.7359444,-1.47997531 16.5869815,4.46993827 L19.9688704,11.5282716 C20.9674259,13.6124321 19.4483395,16.0246914 17.1372531,16.0246914 Z" id="Stroke-3" stroke="#3498DB"></path>
                </g>
                <g id="Group-10" transform="translate(6.382716, 17.986358)">
                    <path d="M7.48930247,0.172808642 C7.48930247,2.21500617 5.83400617,3.87043827 3.79167284,3.87043827 C1.74947531,3.87043827 0.0940432099,2.21500617 0.0940432099,0.172808642 C0.0940432099,0.140623457 0.0940432099,0.108166667 0.097845679,0.0780185185 L7.48740123,0.0780185185 C7.48930247,0.108166667 7.48930247,0.140623457 7.48930247,0.172808642" id="Fill-6"></path>
                    <path d="M7.48930247,0.172808642 C7.48930247,2.21500617 5.83400617,3.87043827 3.79167284,3.87043827 C1.74947531,3.87043827 0.0940432099,2.21500617 0.0940432099,0.172808642 C0.0940432099,0.140623457 0.0940432099,0.108166667 0.097845679,0.0780185185 L7.48740123,0.0780185185 C7.48930247,0.108166667 7.48930247,0.140623457 7.48930247,0.172808642 Z" id="Stroke-8" stroke="#3498DB"></path>
                </g>
            </g>
        </g>
    </g>
</svg>