<?xml version="1.0" encoding="UTF-8" standalone="no"?>
<svg width="17px" height="24px" viewBox="0 0 17 24" version="1.1" xmlns="http://www.w3.org/2000/svg" xmlns:xlink="http://www.w3.org/1999/xlink">
    <!-- Generator: Sketch 47 (45396) - http://www.bohemiancoding.com/sketch -->
    <title>Page 1 Copy 9</title>
    <desc>Created with Sketch.</desc>
    <defs></defs>
    <g id="Symbols" stroke="none" stroke-width="1" fill="none" fill-rule="evenodd">
        <g id="Perfil_normal" transform="translate(-37.000000, -6.000000)" fill="#FFFFFF">
            <g id="Page-1-Copy-9" transform="translate(38.000000, 7.000000)">
                <path d="M11.8048729,4.42895706 C11.8048729,6.83664883 9.85281011,8.78871166 7.44511833,8.78871166 C5.03728815,8.78871166 3.08536373,6.83664883 3.08536373,4.42895706 C3.08536373,2.02126528 5.03728815,0.069202454 7.44511833,0.069202454 C9.85281011,0.069202454 11.8048729,2.02126528 11.8048729,4.42895706 Z" id="Stroke-1" stroke="#3498DB"></path>
                <g id="Group-7" transform="translate(0.000000, 10.795583)">
                    <path d="M12.5266268,11.6952147 L2.36341605,11.6952147 C0.676952245,11.6952147 -0.431809472,9.93470429 0.297030773,8.41363436 L2.76506709,3.26234209 C4.84570807,-1.0801119 10.0443348,-1.0801119 12.1251142,3.26234209 L14.5932889,8.41363436 C15.3218524,9.93470429 14.2133675,11.6952147 12.5266268,11.6952147" id="Fill-3"></path>
                    <path d="M12.5266268,11.6952147 L2.36341605,11.6952147 C0.676952245,11.6952147 -0.431809472,9.93470429 0.297030773,8.41363436 L2.76506709,3.26234209 C4.84570807,-1.0801119 10.0443348,-1.0801119 12.1251142,3.26234209 L14.5932889,8.41363436 C15.3218524,9.93470429 14.2133675,11.6952147 12.5266268,11.6952147 Z" id="Stroke-5" stroke="#3498DB"></path>
                </g>
            </g>
        </g>
    </g>
</svg>